<svg width="38" height="35" viewBox="0 0 38 35" fill="none" xmlns="http://www.w3.org/2000/svg">
<rect width="38" height="35" rx="8" fill="#4643D3"/>
<path fill-rule="evenodd" clip-rule="evenodd" d="M26.4963 11.3034C26.8375 11.6447 26.8375 12.1959 26.4963 12.5372L24.895 14.1384L21.6138 10.8572L23.215 9.25592C23.3785 9.09208 23.6004 9 23.8319 9C24.0633 9 24.2853 9.09208 24.4488 9.25592L26.4963 11.3034ZM11 24.3147V21.6547C11 21.5322 11.0438 21.4272 11.1313 21.3397L20.6775 11.7934L23.9588 15.0747L14.4038 24.6209C14.325 24.7084 14.2113 24.7522 14.0975 24.7522H11.4375C11.1925 24.7522 11 24.5597 11 24.3147Z" fill="white"/>
</svg>
