<svg width="64" height="64" viewBox="0 0 64 64" fill="none" xmlns="http://www.w3.org/2000/svg">
<path d="M64 36L32 52L0 36V34.4L32 18.4L64 34.4V36Z" fill="#1F3A13"/>
<path d="M64 36L32 52V18.4L64 34.4V36Z" fill="#8BCF6A" fill-opacity="0.25"/>
<path d="M64 34.4L32 50.4L0 34.4L32 18.4L64 34.4Z" fill="#8BCF6A"/>
<path d="M42.4 24L56 34.4L32 22.4L18.4 12L42.4 24Z" fill="#B22D0F"/>
<path d="M41.6001 23.76L55.1201 33.92L32.5601 45.28L41.6001 23.76Z" fill="url(#paint0_linear)"/>
<path d="M38.2019 42.4391L49.4795 36.7602C46.5596 38.2292 43.0401 28.48 43.0401 28.48C43.0401 28.48 42.8001 40.1206 38.2019 42.4391Z" fill="#4C1100"/>
<path d="M42.24 24.72L54.56 34.16L55.625 34.5875L42.56 24.72H42.24Z" fill="#7F1D01"/>
<path d="M42.4 24L56 34.4L55.625 34.5875L42.56 24.72L32.75 46.025L32 46.4L42.4 24Z" fill="#FFC4B3"/>
<path d="M42.4 24L32 46.4L8 34.4L18.4 12L42.4 24Z" fill="#FE805C"/>
<path d="M42.4 24L32 46.4L20 40.4L8 34.4L18.4 12C18.4 12 10.0863 29.9064 20 34.4C34.5165 40.9799 42.4 24 42.4 24Z" fill="#B12801"/>
<path d="M7.60296 34.1471C7.56027 33.9479 7.71213 33.76 7.91586 33.76H8.00002C8.17675 33.76 8.32002 33.9033 8.32002 34.08V34.5703C8.32002 34.7414 8.18138 34.88 8.01036 34.88C7.86434 34.88 7.73816 34.778 7.70757 34.6352L7.60296 34.1471Z" fill="#C57429"/>
<path d="M31.603 46.1471C31.5603 45.9479 31.7121 45.76 31.9159 45.76H32C32.1768 45.76 32.32 45.9033 32.32 46.08V46.5703C32.32 46.7414 32.1814 46.88 32.0104 46.88C31.8643 46.88 31.7382 46.778 31.7076 46.6352L31.603 46.1471Z" fill="#C57429"/>
<path d="M56.237 34.1471C56.2797 33.9479 56.1278 33.76 55.9241 33.76H55.8399C55.6632 33.76 55.5199 33.9033 55.5199 34.08V34.5703C55.5199 34.7414 55.6586 34.88 55.8296 34.88C55.9756 34.88 56.1018 34.778 56.1324 34.6352L56.237 34.1471Z" fill="#C57429"/>
<defs>
<linearGradient id="paint0_linear" x1="45.6801" y1="40.08" x2="41.9987" y2="25.2803" gradientUnits="userSpaceOnUse">
<stop stop-color="#FE754E"/>
<stop offset="0.996421" stop-color="#B12801"/>
</linearGradient>
</defs>
</svg>
